<svg height="512pt" viewBox="-64 0 512 512" width="512pt" xmlns="http://www.w3.org/2000/svg"><path d="m376 88h-368v416h368zm-32 384" fill="#57a4ff"/><g fill="#004fac"><path d="m304 296c4.417969 0 8-3.582031 8-8s-3.582031-8-8-8h-104v-104c0-4.417969-3.582031-8-8-8s-8 3.582031-8 8v104h-104c-4.417969 0-8 3.582031-8 8s3.582031 8 8 8h104v104c0 4.417969 3.582031 8 8 8s8-3.582031 8-8v-104zm0 0"/><path d="m8 512h368c4.417969 0 8-3.582031 8-8v-416c0-4.417969-3.582031-8-8-8h-88v-40c-.027344-22.082031-17.917969-39.9726562-40-40h-112c-22.082031.0273438-39.972656 17.917969-40 40v40h-88c-4.417969 0-8 3.582031-8 8v416c0 4.417969 3.582031 8 8 8zm104-472c0-13.253906 10.746094-24 24-24h112c13.253906 0 24 10.746094 24 24v40h-160zm-96 56h80v32c0 4.417969 3.582031 8 8 8s8-3.582031 8-8v-32h160v32c0 4.417969 3.582031 8 8 8s8-3.582031 8-8v-32h80v400h-352zm0 0"/><path d="m344 432c-4.417969 0-8 3.582031-8 8v24h-24c-4.417969 0-8 3.582031-8 8s3.582031 8 8 8h32c4.417969 0 8-3.582031 8-8v-32c0-4.417969-3.582031-8-8-8zm0 0"/><path d="m280 464h-16c-4.417969 0-8 3.582031-8 8s3.582031 8 8 8h16c4.417969 0 8-3.582031 8-8s-3.582031-8-8-8zm0 0"/></g></svg>