<?xml version="1.0" encoding="UTF-8" standalone="no"?>
<!-- Generator: Adobe Illustrator 19.0.0, SVG Export Plug-In . SVG Version: 6.00 Build 0)  -->

<svg
   xmlns:dc="http://purl.org/dc/elements/1.1/"
   xmlns:cc="http://creativecommons.org/ns#"
   xmlns:rdf="http://www.w3.org/1999/02/22-rdf-syntax-ns#"
   xmlns:svg="http://www.w3.org/2000/svg"
   xmlns="http://www.w3.org/2000/svg"
   xmlns:sodipodi="http://sodipodi.sourceforge.net/DTD/sodipodi-0.dtd"
   xmlns:inkscape="http://www.inkscape.org/namespaces/inkscape"
   version="1.1"
   id="Capa_1"
   x="0px"
   y="0px"
   viewBox="0 0 512 512"
   style="enable-background:new 0 0 512 512;"
   xml:space="preserve"
   sodipodi:docname="rotate_left.svg"
   inkscape:version="0.92.4 (f8dce91, 2019-08-02)"><metadata
   id="metadata52"><rdf:RDF><cc:Work
       rdf:about=""><dc:format>image/svg+xml</dc:format><dc:type
         rdf:resource="http://purl.org/dc/dcmitype/StillImage" /></cc:Work></rdf:RDF></metadata><defs
   id="defs50" /><sodipodi:namedview
   pagecolor="#ffffff"
   bordercolor="#666666"
   borderopacity="1"
   objecttolerance="10"
   gridtolerance="10"
   guidetolerance="10"
   inkscape:pageopacity="0"
   inkscape:pageshadow="2"
   inkscape:window-width="1366"
   inkscape:window-height="738"
   id="namedview48"
   showgrid="false"
   inkscape:zoom="0.4609375"
   inkscape:cx="256"
   inkscape:cy="256"
   inkscape:window-x="0"
   inkscape:window-y="0"
   inkscape:window-maximized="1"
   inkscape:current-layer="Capa_1" />
<linearGradient
   id="SVGID_1_"
   gradientUnits="userSpaceOnUse"
   x1="0"
   y1="257.9999"
   x2="511.9998"
   y2="257.9999"
   gradientTransform="rotate(180,255.99987,256.9999)">
	<stop
   offset="0"
   style="stop-color:#00F2FE"
   id="stop2" />
	<stop
   offset="0.021"
   style="stop-color:#03EFFE"
   id="stop4" />
	<stop
   offset="0.293"
   style="stop-color:#24D2FE"
   id="stop6" />
	<stop
   offset="0.554"
   style="stop-color:#3CBDFE"
   id="stop8" />
	<stop
   offset="0.796"
   style="stop-color:#4AB0FE"
   id="stop10" />
	<stop
   offset="1"
   style="stop-color:#4FACFE"
   id="stop12" />
</linearGradient>
<path
   style="fill:url(#SVGID_1_)"
   d="M 5.9287498,312.213 57.84375,363.612 c 11.648,11.534 27.004,17.308 42.359,17.308 15.214,0 30.428,-5.665 42.051,-17.011 l 51.717,-50.487 c 7.904,-7.716 8.057,-20.379 0.341,-28.282 -7.715,-7.904 -20.378,-8.058 -28.282,-0.341 l -46.03,44.935 V 256 c 0,-97.047 78.953,-176 176,-176 28.929,0 57.454,7.126 82.788,20.644 5.241,2.799 10.401,5.902 15.337,9.224 3.425,2.305 7.308,3.409 11.147,3.409 6.434,0 12.749,-3.097 16.611,-8.836 6.167,-9.163 3.737,-21.592 -5.427,-27.759 -4.474,-3.011 -9.098,-5.875 -13.802,-8.552 -0.076,-0.044 -0.153,-0.088 -0.229,-0.132 -1.154,-0.654 -2.314,-1.297 -3.479,-1.93 -0.069,-0.038 -0.138,-0.075 -0.207,-0.112 -0.095,-0.052 -0.19,-0.103 -0.285,-0.154 -0.196,-0.105 -0.392,-0.211 -0.587,-0.316 -0.007,-0.003 -0.013,-0.007 -0.02,-0.01 -0.088,-0.047 -0.176,-0.095 -0.264,-0.142 -0.042,-0.022 -0.084,-0.044 -0.126,-0.066 C 366.38175,48.721 331.42775,40 295.99975,40 c -57.695,0 -111.938,22.468 -152.735,63.265 -40.797,40.797 -63.265,95.039 -63.265,152.735 v 73.261 l -45.929,-45.473 c -7.85,-7.772 -20.512,-7.71 -28.2840002,0.141 -7.77,7.848 -7.708,20.511 0.142,28.284 z M 491.03675,283.987 c -11.036,-0.443 -19.625,-9.749 -19.183,-20.786 0.096,-2.378 0.145,-4.804 0.146,-7.201 0,-3.591 -0.109,-7.218 -0.324,-10.779 -0.665,-11.025 7.733,-20.503 18.759,-21.169 11.05,-0.677 20.504,7.733 21.169,18.759 0.262,4.361 0.396,8.798 0.396,13.197 -0.001,2.932 -0.061,5.892 -0.177,8.797 -0.433,10.764 -9.294,19.198 -19.971,19.198 -0.27,0 -0.541,-0.005 -0.815,-0.016 z m -36.42,48.386 c 4.798,-9.948 16.752,-14.126 26.702,-9.325 9.949,4.798 14.124,16.753 9.325,26.702 -3.175,6.583 -6.732,13.085 -10.573,19.325 -3.778,6.139 -10.336,9.52 -17.051,9.52 -3.576,0 -7.196,-0.959 -10.465,-2.971 -9.407,-5.79 -12.339,-18.109 -6.549,-27.516 3.13,-5.083 6.026,-10.377 8.611,-15.735 z M 295.99975,432 c 5.986,0 12.023,-0.304 17.942,-0.901 10.976,-1.117 20.799,6.896 21.909,17.887 1.111,10.99 -6.897,20.8 -17.888,21.91 -7.25,0.733 -14.64,1.104 -21.964,1.104 h -0.004 c -11.046,0 -19.998,-8.954 -19.998,-20 0,-11.046 8.957,-20 20.003,-20 z m 85.913,-22.354 c 5.199,-2.914 10.311,-6.133 15.191,-9.564 9.037,-6.354 21.511,-4.18 27.864,4.856 6.354,9.035 4.179,21.511 -4.856,27.864 -5.988,4.211 -12.26,8.159 -18.641,11.736 -3.094,1.734 -6.449,2.558 -9.761,2.558 -7.001,0 -13.798,-3.684 -17.465,-10.225 -5.399,-9.634 -1.968,-21.823 7.668,-27.225 z m 68.156,-276.452 c 9.285,-5.979 21.663,-3.302 27.644,5.985 3.97,6.163 7.661,12.593 10.971,19.11 5.003,9.849 1.074,21.887 -8.773,26.889 -2.902,1.475 -5.995,2.173 -9.042,2.173 -7.29,0 -14.319,-4.001 -17.847,-10.946 -2.696,-5.308 -5.703,-10.545 -8.938,-15.567 -5.98,-9.287 -3.301,-21.663 5.985,-27.644 z"
   id="path15"
   inkscape:connector-curvature="0" />
<g
   id="g17"
   transform="matrix(-1,0,0,1,511.99975,0)">
</g>
<g
   id="g19"
   transform="matrix(-1,0,0,1,511.99975,0)">
</g>
<g
   id="g21"
   transform="matrix(-1,0,0,1,511.99975,0)">
</g>
<g
   id="g23"
   transform="matrix(-1,0,0,1,511.99975,0)">
</g>
<g
   id="g25"
   transform="matrix(-1,0,0,1,511.99975,0)">
</g>
<g
   id="g27"
   transform="matrix(-1,0,0,1,511.99975,0)">
</g>
<g
   id="g29"
   transform="matrix(-1,0,0,1,511.99975,0)">
</g>
<g
   id="g31"
   transform="matrix(-1,0,0,1,511.99975,0)">
</g>
<g
   id="g33"
   transform="matrix(-1,0,0,1,511.99975,0)">
</g>
<g
   id="g35"
   transform="matrix(-1,0,0,1,511.99975,0)">
</g>
<g
   id="g37"
   transform="matrix(-1,0,0,1,511.99975,0)">
</g>
<g
   id="g39"
   transform="matrix(-1,0,0,1,511.99975,0)">
</g>
<g
   id="g41"
   transform="matrix(-1,0,0,1,511.99975,0)">
</g>
<g
   id="g43"
   transform="matrix(-1,0,0,1,511.99975,0)">
</g>
<g
   id="g45"
   transform="matrix(-1,0,0,1,511.99975,0)">
</g>
</svg>